<?xml version="1.0" ?>
<svg
  enable-background="new 0 0 512 512" id="Layer_1" version="1.1" viewBox="0 0 512 512" xml:space="preserve"
  xmlns="http://www.w3.org/2000/svg"
><g><path d="M257.1,507.9C119.2,507.9,7.9,395.4,8.5,255.5C9.1,116.9,120.9,4.8,259.6,6.2   c136,1.3,247,112.8,245.9,253.1C504.4,397.1,393.9,507.5,257.1,507.9z M257,25.9C132.9,25.5,29.3,126.6,28.1,254.5   c-1.3,130.3,102.8,232.4,226.4,233.7c125.9,1.3,230.7-100.6,231.3-229.2C486.5,129.4,384.3,25.9,257,25.9z" fill="white"/><path
  d="M388.1,143c13.4-1.4,26,9.3,26.9,22.9c0.2,3.6,0,7.3,0,11c-1.2,0-2.1,0.8-3.1,1.5   c-11,7.9-21.9,15.7-32.9,23.6c-36.7,25.2-73.4,50.3-110,75.6c-3.8,2.6-8.1,4.6-11.1,8.3c-1.7,0.3-2.8-0.8-4-1.7   c-29.6-20.6-59.3-41.3-88.9-61.9c-10.1-7-20.1-14-31-21.5c0,2.7,0,4.5,0,6.3c0,28.6,0,57.3,0,85.9c0,25.3,0.1,50.6,0.2,75.9   c0,0.7-0.1,1.4-0.1,2.1c-16.6,3.2-30.7-4.7-34.4-19.4c-0.5-2.1-0.7-4.3-0.7-6.4c0-58.7,0.1-117.5-0.1-176.2   c-0.1-14.9,13.2-28.1,27.1-26c0.5,0.5,0.9,1,1.4,1.4c42.1,31.2,84.2,62.4,126.2,93.6c2.5,1.9,4,1.6,6.3-0.1   c26.2-19.4,52.5-38.7,78.7-58C355.1,167.7,371.6,155.3,388.1,143z"
  fill="white"
/><path
  d="M379.1,371c0-56.3,0-112.6-0.1-168.9c11-7.9,21.9-15.7,32.9-23.6c0.9-0.7,1.8-1.5,3.1-1.5   c0.1,18.5,0.2,36.9,0.2,55.4c0,36.1,0,72.2,0,108.3c0,2.5,0,5-0.1,7.5c-0.6,12.4-6.6,19.4-18.6,21.7   C390.7,371,384.9,371.7,379.1,371z"
  fill="white"
/></g></svg>
