<?xml version="1.0" ?>
<svg
  enable-background="new 0 0 512 512" id="Layer_1" version="1.1" viewBox="0 0 512 512" xml:space="preserve"
  xmlns="http://www.w3.org/2000/svg"
><g>
  <path d="M257.1,507.9C119.2,507.9,7.9,395.4,8.5,255.5C9.1,116.9,120.9,4.8,259.6,6.2   c136,1.3,247,112.8,245.9,253.1C504.4,397.1,393.9,507.5,257.1,507.9z M257,25.9C132.9,25.5,29.3,126.6,28.1,254.5   c-1.3,130.3,102.8,232.4,226.4,233.7c125.9,1.3,230.7-100.6,231.3-229.2C486.5,129.4,384.3,25.9,257,25.9z" fill="white"/>
  </g>
<!--  <rect x="119.096" y="211.652" style="fill:black;" width="273.809" height="122.435"/>-->
  <g>
	<path style="fill:#FFFFFF;" d="M204.871,346.387c13.547,0,21.341,6.659,21.341,18.465c0,12.412-7.795,19.601-21.341,19.601h-9.611
		v14.909h-13.471v-52.975L204.871,346.387L204.871,346.387z M195.26,373.858h8.93c5.904,0,9.308-2.952,9.308-8.552
		c0-5.525-3.406-8.324-9.308-8.324h-8.93V373.858z"/>
    <path style="fill:#FFFFFF;" d="M257.928,346.387c16.649,0,28.152,10.746,28.152,26.487c0,15.666-11.655,26.488-28.683,26.488
		h-22.25v-52.975H257.928z M248.619,388.615h9.611c8.249,0,14.151-6.357,14.151-15.665c0-9.384-6.205-15.817-14.757-15.817h-9.006
		V388.615z"/>
    <path style="fill:#FFFFFF;" d="M308.563,356.982v12.26h23.763v10.596h-23.763v19.525h-13.471v-52.975h39.277v10.595h-25.806
		V356.982z"/>
</g>
</svg>
